<?xml version="1.0" encoding="UTF-8" standalone="no"?>
<svg
   version="1.1"
   viewBox="0 0 16 16"
   id="svg1"
   sodipodi:docname="activities.svg"
   inkscape:version="1.3 (0e150ed6c4, 2023-07-21)"
   xmlns:inkscape="http://www.inkscape.org/namespaces/inkscape"
   xmlns:sodipodi="http://sodipodi.sourceforge.net/DTD/sodipodi-0.dtd"
   xmlns="http://www.w3.org/2000/svg"
   xmlns:svg="http://www.w3.org/2000/svg">
  <defs
     id="defs1" />
  <sodipodi:namedview
     id="namedview1"
     pagecolor="#ffffff"
     bordercolor="#000000"
     borderopacity="0.25"
     inkscape:showpageshadow="2"
     inkscape:pageopacity="0.0"
     inkscape:pagecheckerboard="0"
     inkscape:deskcolor="#d1d1d1"
     inkscape:zoom="35.753087"
     inkscape:cx="8.600656"
     inkscape:cy="8.9362914"
     inkscape:window-width="1920"
     inkscape:window-height="1011"
     inkscape:window-x="0"
     inkscape:window-y="0"
     inkscape:window-maximized="1"
     inkscape:current-layer="svg1" />
  <g
     transform="translate(-512,-484)"
     id="g1"
     style="fill:#ffffff">
    <path
       d="m515.8 487c-0.53643 0-0.80469 1.5e-4 -0.80469 0.625v0.75c0 0.62485 0.26826 0.625 0.80469 0.625h0.39062c0.53643 0 0.80469-1.5e-4 0.80469-0.625v-0.75c0-0.60253-0.26826-0.625-0.80469-0.625zm4 0c-0.53643 0-0.80469 1.5e-4 -0.80469 0.625v0.75c0 0.62485 0.26826 0.625 0.80469 0.625h0.39062c0.53643 0 0.80469-1.5e-4 0.80469-0.625v-0.75c0-0.60253-0.26826-0.625-0.80469-0.625zm4 0c-0.53643 0-0.80469 1.5e-4 -0.80469 0.625v0.75c0 0.62485 0.26826 0.625 0.80469 0.625h0.39062c0.53643 0 0.80469-1.5e-4 0.80469-0.625v-0.75c0-0.60253-0.26826-0.625-0.80469-0.625zm-8 4c-0.53643 0-0.80469 1.5e-4 -0.80469 0.625v0.75c0 0.62485 0.26826 0.625 0.80469 0.625h0.39062c0.53643 0 0.80469-1.5e-4 0.80469-0.625v-0.75c0-0.60253-0.26826-0.625-0.80469-0.625zm4 0c-0.53643 0-0.80469 1.5e-4 -0.80469 0.625v0.75c0 0.62485 0.26826 0.625 0.80469 0.625h0.39062c0.53643 0 0.80469-1.5e-4 0.80469-0.625v-0.75c0-0.60253-0.26826-0.625-0.80469-0.625zm4 0c-0.53643 0-0.80469 1.5e-4 -0.80469 0.625v0.75c0 0.62485 0.26826 0.625 0.80469 0.625h0.39062c0.53643 0 0.80469-1.5e-4 0.80469-0.625v-0.75c0-0.60253-0.26826-0.625-0.80469-0.625zm-8 4c-0.53643 0-0.80469 1.5e-4 -0.80469 0.625v0.75c0 0.62485 0.26826 0.625 0.80469 0.625h0.39062c0.53643 0 0.80469-1.5e-4 0.80469-0.625v-0.75c0-0.60253-0.26826-0.625-0.80469-0.625zm4 0c-0.53643 0-0.80469 1.5e-4 -0.80469 0.625v0.75c0 0.62485 0.26826 0.625 0.80469 0.625h0.39062c0.53643 0 0.80469-1.5e-4 0.80469-0.625v-0.75c0-0.60253-0.26826-0.625-0.80469-0.625zm4 0c-0.53643 0-0.80469 1.5e-4 -0.80469 0.625v0.75c0 0.62485 0.26826 0.625 0.80469 0.625h0.39062c0.53643 0 0.80469-1.5e-4 0.80469-0.625v-0.75c0-0.60253-0.26826-0.625-0.80469-0.625z"
       color="#000000"
       fill="#808080"
       id="path1"
       style="fill:#ffffff" />
  </g>
</svg>
